# xmcd CD database file
#
# Track frame offsets:
#	150
#	23937
#	45887
#
# Disc length: 925 seconds
#
# Revision: 4
# Processed by: cddbd v1.5PL3 Copyright (c) Steve Scherf et al.
# Submitted via: CDex 1.51
#
DISCID=17039b03
DTITLE=THE YELLOW MONKEY - BURN
DYEAR=1997
DGENRE=Rock
TTITLE0=BURN
TTITLE1=LOVE LOVE SHOW(English Version)
TTITLE2=BURN(Instrumental)
EXTD=YEAR: 1997
EXTT0=
EXTT1=
EXTT2=
PLAYORDER=
